<svg width="192" height="52" viewBox="0 0 192 52" fill="none" xmlns="http://www.w3.org/2000/svg">
<path d="M41.3687 32.0223L50.9771 9.23934H56.3475L65.8589 32.0223H59.712L57.9327 27.5494H49.0683L47.3861 32.0223H41.3687ZM50.6536 23.1408H56.4122L53.5652 15.3212L50.6536 23.1408Z" fill="white"/>
<path d="M69.1663 32.2476C67.8507 32.2476 66.7938 32.1296 65.9958 31.8936L66.4488 27.3241C66.8801 27.4743 67.333 27.5494 67.8075 27.5494C68.6918 27.5494 69.4035 27.2812 69.9427 26.7449C70.5035 26.2086 70.9456 25.1681 71.2692 23.6235C71.6142 22.0575 71.7868 19.9443 71.7868 17.2842V9.23934H89.2567V32.0223H83.7245V13.9053H77.0925V17.0589C77.0925 22.5294 76.467 26.4339 75.2161 28.7722C73.9651 31.0891 71.9485 32.2476 69.1663 32.2476Z" fill="white"/>
<path d="M105.233 32.6337C101.674 32.6337 98.7301 31.5182 96.4008 29.2871C94.0715 27.0345 92.9068 24.1384 92.9068 20.5987C92.9068 17.016 94.0823 14.1306 96.4332 11.9424C98.8056 9.73276 101.771 8.62793 105.33 8.62793C106.991 8.62793 108.597 8.92827 110.15 9.52895C111.725 10.1082 112.976 10.9234 113.903 11.9746L110.15 15.7074C109.654 15.0209 108.986 14.506 108.144 14.1628C107.325 13.7981 106.451 13.6157 105.524 13.6157C103.604 13.6157 102.019 14.2808 100.768 15.6109C99.5389 16.9195 98.9243 18.5821 98.9243 20.5987C98.9243 22.6581 99.5282 24.3422 100.736 25.6508C101.944 26.938 103.507 27.5816 105.427 27.5816C107.562 27.5816 109.18 26.8093 110.28 25.2647L114.13 28.8688C111.951 31.3787 108.986 32.6337 105.233 32.6337Z" fill="white"/>
<path d="M116.501 32.0223V9.23934H121.936V18.507H122.033L130.218 9.23934H137.141L127.274 19.7298L137.723 32.0223H130.509L122 21.5319H121.936V32.0223H116.501Z" fill="white"/>
<path d="M149.593 32.6337C145.991 32.6337 143.015 31.5182 140.664 29.2871C138.313 27.0345 137.138 24.1169 137.138 20.5343C137.138 16.9302 138.302 14.0448 140.632 11.878C142.982 9.7113 145.97 8.62793 149.593 8.62793C153.238 8.62793 156.225 9.7113 158.554 11.878C160.905 14.0448 162.081 16.9302 162.081 20.5343C162.081 24.1169 160.905 27.0345 158.554 29.2871C156.204 31.5182 153.216 32.6337 149.593 32.6337ZM144.87 25.6186C146.099 26.9487 147.673 27.6138 149.593 27.6138C151.513 27.6138 153.087 26.9487 154.316 25.6186C155.546 24.2886 156.16 22.5938 156.16 20.5343C156.16 18.5177 155.546 16.8551 154.316 15.5465C153.087 14.2379 151.513 13.5836 149.593 13.5836C147.673 13.5836 146.099 14.2379 144.87 15.5465C143.662 16.8551 143.058 18.5177 143.058 20.5343C143.058 22.5938 143.662 24.2886 144.87 25.6186Z" fill="white"/>
<path d="M165.723 32.0223V9.23934H173.585L178.793 23.8488H178.923L183.905 9.23934H191.896V32.0223H186.493L186.622 15.9005H186.525L180.572 32.0223H176.69L170.899 15.9005H170.802L170.932 32.0223H165.723Z" fill="white"/>
<path d="M41.3525 43.004L43.6546 37.6784H44.4694L46.749 43.004H45.6727L45.1794 41.7854H42.8848L42.4064 43.004H41.3525ZM43.2062 40.973H44.8506L44.0358 38.8067L43.2062 40.973Z" fill="white"/>
<path d="M47.4574 43.0566C47.2033 43.0566 46.994 43.0316 46.8296 42.9814L46.9267 42.1465C47.0314 42.1816 47.1385 42.1991 47.2481 42.1991C47.6219 42.1991 47.8909 41.9785 48.0554 41.5372C48.2248 41.0959 48.3095 40.3161 48.3095 39.1978V37.6784H51.9495V43.004H51.0078V38.5058H49.2139V39.3257C49.2139 40.6345 49.0769 41.5848 48.8028 42.1766C48.5337 42.7633 48.0853 43.0566 47.4574 43.0566Z" fill="white"/>
<path d="M53.112 43.004V37.6784H54.0538V39.7921H54.8386C55.4366 39.7921 55.9174 39.925 56.2812 40.1907C56.6499 40.4565 56.8343 40.8577 56.8343 41.3943C56.8343 41.9258 56.6499 42.327 56.2812 42.5978C55.9174 42.8686 55.4415 43.004 54.8536 43.004H53.112ZM54.0538 42.2066H54.7639C55.5113 42.2066 55.885 41.9384 55.885 41.4018C55.885 41.136 55.7879 40.9354 55.5935 40.8C55.3992 40.6596 55.1226 40.5894 54.7639 40.5894H54.0538V42.2066Z" fill="white"/>
<path d="M58.3049 43.004V38.5058H56.683V37.6784H60.8686V38.5058H59.2467V43.004H58.3049Z" fill="white"/>
<path d="M61.4842 43.004V37.6784H64.9897V38.5058H62.426V39.8598H64.8552V40.6571H62.426V42.1615H65.1242V43.004H61.4842Z" fill="white"/>
<path d="M66.0462 43.004V37.6784H67.7728C69.1032 37.6784 69.7685 38.1924 69.7685 39.2204C69.7685 39.772 69.5791 40.1732 69.2004 40.4239C68.8217 40.6746 68.3259 40.8 67.713 40.8H66.988V43.004H66.0462ZM66.988 40.0027H67.6457C68.428 40.0027 68.8192 39.7419 68.8192 39.2204C68.8192 38.9345 68.7146 38.739 68.5053 38.6337C68.301 38.5284 68.0244 38.4757 67.6756 38.4757H66.988V40.0027Z" fill="white"/>
<path d="M70.6082 43.004V37.6784H71.55V39.8297H74.024V37.6784H74.9658V43.004H74.024V40.6421H71.55V43.004H70.6082Z" fill="white"/>
<path d="M75.4909 43.004L77.793 37.6784H78.6077L80.8874 43.004H79.8111L79.3178 41.7854H77.0232L76.5448 43.004H75.4909ZM77.3446 40.973H78.9889L78.1742 38.8067L77.3446 40.973Z" fill="white"/>
<path d="M82.0346 43.004V38.5058H80.4127V37.6784H84.5983V38.5058H82.9764V43.004H82.0346Z" fill="white"/>
<path d="M85.2139 43.004V37.6784H86.1557V41.5748H86.1781L88.6596 37.6784H89.6761V43.004H88.7344V39.1376H88.7194L86.2454 43.004H85.2139Z" fill="white"/>
<path d="M90.8416 43.004V37.6784H92.9045C93.353 37.6784 93.7342 37.7887 94.0481 38.0093C94.367 38.23 94.5265 38.566 94.5265 39.0173C94.5265 39.3081 94.4443 39.5539 94.2798 39.7545C94.1154 39.955 93.8912 40.098 93.6071 40.1832V40.1983C93.951 40.2434 94.2275 40.3763 94.4368 40.5969C94.6461 40.8176 94.7507 41.1034 94.7507 41.4544C94.7507 41.7302 94.6934 41.9735 94.5788 42.1841C94.4692 42.3897 94.3172 42.5501 94.1229 42.6655C93.9285 42.7808 93.7168 42.8661 93.4875 42.9212C93.2583 42.9764 93.0117 43.004 92.7476 43.004H90.8416ZM91.7834 38.4607V39.8447H92.6205C92.9344 39.8447 93.1736 39.782 93.3381 39.6567C93.5025 39.5313 93.5847 39.3533 93.5847 39.1226C93.5847 38.8869 93.5 38.7189 93.3306 38.6186C93.1612 38.5133 92.8971 38.4607 92.5383 38.4607H91.7834ZM91.7834 40.6571V42.2066H92.628C93.4153 42.2066 93.8089 41.9409 93.8089 41.4093C93.8089 41.1385 93.7168 40.9454 93.5324 40.8301C93.348 40.7148 93.059 40.6571 92.6654 40.6571H91.7834Z" fill="white"/>
<path d="M95.681 43.004V37.6784H96.6228V39.8297H99.0968V37.6784H100.039V43.004H99.0968V40.6421H96.6228V43.004H95.681Z" fill="white"/>
<path d="M100.564 43.004L102.866 37.6784H103.68L105.96 43.004H104.884L104.391 41.7854H102.096L101.618 43.004H100.564ZM102.417 40.973H104.062L103.247 38.8067L102.417 40.973Z" fill="white"/>
<path d="M106.043 43.004L107.463 40.7474C107.094 40.6521 106.808 40.4766 106.603 40.2208C106.399 39.9651 106.297 39.6441 106.297 39.258C106.297 38.7164 106.471 38.3177 106.82 38.062C107.174 37.8062 107.665 37.6784 108.293 37.6784H110.027V43.004H109.085V40.8752H108.427L107.186 43.004H106.043ZM108.382 40.1005H109.085V38.4757H108.352C107.605 38.4757 107.231 38.744 107.231 39.2806C107.231 39.5564 107.333 39.762 107.538 39.8974C107.742 40.0328 108.024 40.1005 108.382 40.1005Z" fill="white"/>
<path d="M117.597 38.3553L116.88 38.927C116.75 38.7465 116.573 38.6111 116.349 38.5208C116.13 38.4256 115.906 38.3779 115.676 38.3779C115.138 38.3779 114.697 38.5635 114.353 38.9345C114.015 39.3056 113.845 39.7695 113.845 40.3261C113.845 40.9078 114.007 41.3817 114.331 41.7478C114.66 42.1089 115.096 42.2894 115.639 42.2894C116.197 42.2894 116.626 42.0838 116.925 41.6726L117.68 42.2066C117.186 42.8285 116.504 43.1394 115.632 43.1394C114.804 43.1394 114.127 42.8786 113.599 42.3571C113.07 41.8305 112.806 41.1536 112.806 40.3261C112.806 39.4887 113.075 38.8167 113.613 38.3102C114.157 37.7987 114.844 37.543 115.676 37.543C116.045 37.543 116.406 37.6132 116.76 37.7536C117.119 37.889 117.398 38.0896 117.597 38.3553Z" fill="white"/>
<path d="M118.265 43.004V37.6784H121.77V38.5058H119.206V39.8598H121.636V40.6571H119.206V42.1615H121.905V43.004H118.265Z" fill="white"/>
<path d="M123.896 43.004V38.5058H122.274V37.6784H126.459V38.5058H124.837V43.004H123.896Z" fill="white"/>
<path d="M127.075 43.004V37.6784H130.58V38.5058H128.017V39.8598H130.446V40.6571H128.017V42.1615H130.715V43.004H127.075Z" fill="white"/>
<path d="M131.637 43.004V37.6784H133.7C134.148 37.6784 134.529 37.7887 134.843 38.0093C135.162 38.23 135.322 38.566 135.322 39.0173C135.322 39.3081 135.24 39.5539 135.075 39.7545C134.911 39.955 134.686 40.098 134.402 40.1832V40.1983C134.746 40.2434 135.023 40.3763 135.232 40.5969C135.441 40.8176 135.546 41.1034 135.546 41.4544C135.546 41.7302 135.489 41.9735 135.374 42.1841C135.264 42.3897 135.112 42.5501 134.918 42.6655C134.724 42.7808 134.512 42.8661 134.283 42.9212C134.054 42.9764 133.807 43.004 133.543 43.004H131.637ZM132.579 38.4607V39.8447H133.416C133.73 39.8447 133.969 39.782 134.133 39.6567C134.298 39.5313 134.38 39.3533 134.38 39.1226C134.38 38.8869 134.295 38.7189 134.126 38.6186C133.956 38.5133 133.692 38.4607 133.334 38.4607H132.579ZM132.579 40.6571V42.2066H133.423C134.211 42.2066 134.604 41.9409 134.604 41.4093C134.604 41.1385 134.512 40.9454 134.328 40.8301C134.143 40.7148 133.854 40.6571 133.461 40.6571H132.579Z" fill="white"/>
<path d="M135.833 43.004L138.136 37.6784H138.95L141.23 43.004H140.154L139.66 41.7854H137.366L136.887 43.004H135.833ZM137.687 40.973H139.331L138.517 38.8067L137.687 40.973Z" fill="white"/>
<path d="M141.313 43.004L142.733 40.7474C142.364 40.6521 142.077 40.4766 141.873 40.2208C141.669 39.9651 141.567 39.6441 141.567 39.258C141.567 38.7164 141.741 38.3177 142.09 38.062C142.444 37.8062 142.935 37.6784 143.562 37.6784H145.296V43.004H144.355V40.8752H143.697L142.456 43.004H141.313ZM143.652 40.1005H144.355V38.4757H143.622C142.875 38.4757 142.501 38.744 142.501 39.2806C142.501 39.5564 142.603 39.762 142.807 39.8974C143.012 40.0328 143.293 40.1005 143.652 40.1005Z" fill="white"/>
<path d="M148.33 43.004V37.6784H149.272V39.9801H149.294L151.507 37.6784H152.777L150.303 40.1381L152.942 43.004H151.619L149.294 40.3336H149.272V43.004H148.33Z" fill="white"/>
<path d="M152.93 40.3261C152.93 39.4837 153.194 38.8092 153.722 38.3027C154.255 37.7962 154.936 37.543 155.763 37.543C156.6 37.543 157.285 37.7962 157.818 38.3027C158.351 38.8092 158.618 39.4837 158.618 40.3261C158.618 41.1536 158.349 41.8305 157.811 42.3571C157.278 42.8786 156.595 43.1394 155.763 43.1394C154.941 43.1394 154.263 42.8786 153.73 42.3571C153.197 41.8305 152.93 41.1536 152.93 40.3261ZM153.954 40.3261C153.954 40.8978 154.123 41.3692 154.462 41.7403C154.801 42.1063 155.237 42.2894 155.77 42.2894C156.308 42.2894 156.747 42.1063 157.086 41.7403C157.425 41.3692 157.594 40.8978 157.594 40.3261C157.594 39.7695 157.425 39.3056 157.086 38.9345C156.752 38.5635 156.313 38.3779 155.77 38.3779C155.232 38.3779 154.794 38.5635 154.455 38.9345C154.121 39.3056 153.954 39.7695 153.954 40.3261Z" fill="white"/>
<path d="M159.527 43.004V37.6784H161L162.375 41.462H162.397L163.758 37.6784H165.238V43.004H164.303V38.7239H164.288L162.681 43.004H162.024L160.439 38.7239H160.424V43.004H159.527Z" fill="white"/>
<path d="M166.403 43.004V37.6784H170.716V43.004H169.774V38.5058H167.345V43.004H166.403Z" fill="white"/>
<path d="M171.242 43.004L173.544 37.6784H174.359L176.638 43.004H175.562L175.069 41.7854H172.774L172.296 43.004H171.242ZM173.096 40.973H174.74L173.925 38.8067L173.096 40.973Z" fill="white"/>
<path d="M177.162 43.004V37.6784H178.104V39.8297H180.578V37.6784H181.52V43.004H180.578V40.6421H178.104V43.004H177.162Z" fill="white"/>
<path d="M182.688 43.004V37.6784H183.629V41.5748H183.652L186.133 37.6784H187.15V43.004H186.208V39.1376H186.193L183.719 43.004H182.688Z" fill="white"/>
<path d="M187.874 43.004L189.294 40.7474C188.926 40.6521 188.639 40.4766 188.435 40.2208C188.23 39.9651 188.128 39.6441 188.128 39.258C188.128 38.7164 188.303 38.3177 188.652 38.062C189.005 37.8062 189.496 37.6784 190.124 37.6784H191.858V43.004H190.916V40.8752H190.259L189.018 43.004H187.874ZM190.214 40.1005H190.916V38.4757H190.184C189.436 38.4757 189.063 38.744 189.063 39.2806C189.063 39.5564 189.165 39.762 189.369 39.8974C189.573 40.0328 189.855 40.1005 190.214 40.1005Z" fill="white"/>
<path d="M9.68416 1.56712L0.177298 28.3278C-0.52595 30.3074 0.950355 32.3839 3.06128 32.3839H14.2123L10.6164 49.4301C10.17 51.546 12.9153 52.798 14.2357 51.0804L31.2903 28.8967C32.8293 26.8949 31.3942 24.0062 28.8606 24.0062H19.9241L32.7831 3.59795C33.7692 2.03287 32.6381 0 30.7812 0H11.9118C10.9105 0 10.0178 0.627872 9.68416 1.56712Z" fill="white"/>
<path d="M14.0544 51.2884C12.6815 52.6874 10.1898 51.4543 10.616 49.43L14.2119 32.3838H15.2719C16.2133 32.3838 16.9165 33.2451 16.7232 34.1617L13.5024 49.43C13.3407 50.1964 13.5979 50.85 14.0544 51.2884Z" fill="white"/>
<path d="M18.4448 0C17.4435 0 16.5504 0.627434 16.2166 1.56698L6.70945 28.3275C6.0062 30.3069 7.48295 32.3834 9.59373 32.3834H3.06226C0.951635 32.3834 -0.525263 30.307 0.177986 28.3275L9.68514 1.56698C10.0189 0.627434 10.911 0 11.9123 0H18.4448Z" fill="white"/>
</svg>
