<svg width="219" height="59" viewBox="0 0 219 59" fill="none" xmlns="http://www.w3.org/2000/svg">
<path d="M47.186 36.3337L58.1457 10.4838H64.2712L75.1202 36.3337H68.109L66.0794 31.2586H55.9685L54.0496 36.3337H47.186ZM57.7767 26.2566H64.345L61.0978 17.3844L57.7767 26.2566Z" fill="#145898"/>
<path d="M78.8927 36.5893C77.3921 36.5893 76.1866 36.4554 75.2764 36.1876L75.793 31.0031C76.2851 31.1734 76.8017 31.2586 77.3429 31.2586C78.3515 31.2586 79.1633 30.9544 79.7784 30.3459C80.418 29.7373 80.9223 28.5568 81.2913 26.8043C81.6849 25.0274 81.8817 22.6298 81.8817 19.6116V10.4838H101.808V36.3337H95.4982V15.7779H87.9335V19.356C87.9335 25.5629 87.2201 29.9929 85.7932 32.6461C84.3664 35.2749 82.0662 36.5893 78.8927 36.5893Z" fill="#145898"/>
<path d="M120.031 37.0274C115.972 37.0274 112.614 35.7617 109.957 33.2302C107.3 30.6745 105.972 27.3884 105.972 23.3722C105.972 19.3073 107.313 16.0335 109.994 13.5507C112.7 11.0436 116.083 9.79004 120.142 9.79004C122.036 9.79004 123.869 10.1308 125.64 10.8124C127.436 11.4696 128.863 12.3945 129.921 13.5872L125.64 17.8225C125.074 17.0436 124.312 16.4594 123.352 16.07C122.417 15.6562 121.421 15.4493 120.363 15.4493C118.174 15.4493 116.366 16.2038 114.939 17.713C113.537 19.1978 112.835 21.0842 112.835 23.3722C112.835 25.7089 113.524 27.6197 114.902 29.1045C116.28 30.5649 118.063 31.2951 120.253 31.2951C122.688 31.2951 124.533 30.4189 125.788 28.6663L130.179 32.7556C127.694 35.6035 124.312 37.0274 120.031 37.0274Z" fill="#145898"/>
<path d="M132.883 36.3337V10.4838H139.083V20.999H139.193L148.529 10.4838H156.426L145.171 22.3864L157.09 36.3337H148.862L139.157 24.431H139.083V36.3337H132.883Z" fill="#145898"/>
<path d="M170.629 37.0274C166.521 37.0274 163.126 35.7617 160.445 33.2302C157.763 30.6745 156.423 27.3641 156.423 23.2992C156.423 19.2099 157.751 15.9361 160.408 13.4777C163.089 11.0193 166.497 9.79004 170.629 9.79004C174.787 9.79004 178.194 11.0193 180.851 13.4777C183.533 15.9361 184.873 19.2099 184.873 23.2992C184.873 27.3641 183.533 30.6745 180.851 33.2302C178.17 35.7617 174.762 37.0274 170.629 37.0274ZM165.242 29.068C166.644 30.5771 168.44 31.3317 170.629 31.3317C172.819 31.3317 174.615 30.5771 176.017 29.068C177.419 27.5588 178.12 25.6359 178.12 23.2992C178.12 21.0112 177.419 19.1247 176.017 17.64C174.615 16.1552 172.819 15.4128 170.629 15.4128C168.44 15.4128 166.644 16.1552 165.242 17.64C163.864 19.1247 163.175 21.0112 163.175 23.2992C163.175 25.6359 163.864 27.5588 165.242 29.068Z" fill="#145898"/>
<path d="M189.028 36.3337V10.4838H197.995L203.936 27.0598H204.083L209.766 10.4838H218.881V36.3337H212.718L212.866 18.0416H212.755L205.965 36.3337H201.537L194.932 18.0416H194.821L194.969 36.3337H189.028Z" fill="#145898"/>
<path d="M47.1677 48.7938L49.7936 42.7513H50.7228L53.3231 48.7938H52.0954L51.5328 47.4112H48.9154L48.3698 48.7938H47.1677ZM49.282 46.4895H51.1576L50.2284 44.0315L49.282 46.4895Z" fill="#145898"/>
<path d="M54.1311 48.8535C53.8412 48.8535 53.6025 48.8251 53.415 48.7682L53.5258 47.8209C53.6452 47.8607 53.7673 47.8806 53.8924 47.8806C54.3187 47.8806 54.6256 47.6302 54.8131 47.1295C55.0064 46.6288 55.103 45.7441 55.103 44.4753V42.7513H59.2549V48.7938H58.1807V43.6901H56.1346V44.6204C56.1346 46.1054 55.9783 47.1836 55.6657 47.855C55.3588 48.5207 54.8472 48.8535 54.1311 48.8535Z" fill="#145898"/>
<path d="M60.5809 48.7938V42.7513H61.6551V45.1495H62.5503C63.2323 45.1495 63.7808 45.3003 64.1957 45.6018C64.6163 45.9034 64.8266 46.3586 64.8266 46.9674C64.8266 47.5705 64.6163 48.0257 64.1957 48.3329C63.7808 48.6402 63.238 48.7938 62.5673 48.7938H60.5809ZM61.6551 47.8891H62.465C63.3176 47.8891 63.7438 47.5847 63.7438 46.9759C63.7438 46.6744 63.633 46.4468 63.4113 46.2932C63.1897 46.1338 62.8742 46.0542 62.465 46.0542H61.6551V47.8891Z" fill="#145898"/>
<path d="M66.504 48.7938V43.6901H64.654V42.7513H69.4283V43.6901H67.5782V48.7938H66.504Z" fill="#145898"/>
<path d="M70.1304 48.7938V42.7513H74.1289V43.6901H71.2046V45.2263H73.9754V46.131H71.2046V47.8379H74.2823V48.7938H70.1304Z" fill="#145898"/>
<path d="M75.3339 48.7938V42.7513H77.3033C78.8209 42.7513 79.5796 43.3345 79.5796 44.5009C79.5796 45.1268 79.3637 45.5819 78.9317 45.8664C78.4997 46.1509 77.9342 46.2932 77.2351 46.2932H76.4082V48.7938H75.3339ZM76.4082 45.3885H77.1584C78.0507 45.3885 78.4969 45.0926 78.4969 44.5009C78.4969 44.1766 78.3775 43.9547 78.1388 43.8352C77.9058 43.7157 77.5904 43.656 77.1925 43.656H76.4082V45.3885Z" fill="#145898"/>
<path d="M80.5375 48.7938V42.7513H81.6117V45.1922H84.4336V42.7513H85.5078V48.7938H84.4336V46.1139H81.6117V48.7938H80.5375Z" fill="#145898"/>
<path d="M86.1068 48.7938L88.7327 42.7513H89.6619L92.2622 48.7938H91.0345L90.4719 47.4112H87.8545L87.3089 48.7938H86.1068ZM88.2211 46.4895H90.0967L89.1675 44.0315L88.2211 46.4895Z" fill="#145898"/>
<path d="M93.5707 48.7938V43.6901H91.7207V42.7513H96.495V43.6901H94.6449V48.7938H93.5707Z" fill="#145898"/>
<path d="M97.1971 48.7938V42.7513H98.2713V47.1722H98.2969L101.127 42.7513H102.287V48.7938H101.213V44.407H101.196L98.3736 48.7938H97.1971Z" fill="#145898"/>
<path d="M103.616 48.7938V42.7513H105.969C106.481 42.7513 106.916 42.8765 107.274 43.1268C107.637 43.3772 107.819 43.7584 107.819 44.2704C107.819 44.6005 107.725 44.8792 107.538 45.1068C107.35 45.3344 107.095 45.4966 106.771 45.5933V45.6104C107.163 45.6616 107.478 45.8124 107.717 46.0627C107.956 46.3131 108.075 46.6374 108.075 47.0357C108.075 47.3486 108.01 47.6246 107.879 47.8635C107.754 48.0968 107.581 48.2789 107.359 48.4097C107.137 48.5406 106.896 48.6373 106.634 48.6999C106.373 48.7625 106.091 48.7938 105.79 48.7938H103.616ZM104.69 43.6389V45.2093H105.645C106.003 45.2093 106.276 45.1381 106.464 44.9959C106.651 44.8536 106.745 44.6517 106.745 44.3899C106.745 44.1225 106.648 43.9319 106.455 43.8181C106.262 43.6986 105.961 43.6389 105.551 43.6389H104.69ZM104.69 46.131V47.8891H105.654C106.552 47.8891 107.001 47.5876 107.001 46.9845C107.001 46.6772 106.896 46.4582 106.685 46.3273C106.475 46.1964 106.145 46.131 105.696 46.131H104.69Z" fill="#145898"/>
<path d="M109.136 48.7938V42.7513H110.21V45.1922H113.032V42.7513H114.106V48.7938H113.032V46.1139H110.21V48.7938H109.136Z" fill="#145898"/>
<path d="M114.705 48.7938L117.331 42.7513H118.261L120.861 48.7938H119.633L119.07 47.4112H116.453L115.908 48.7938H114.705ZM116.82 46.4895H118.695L117.766 44.0315L116.82 46.4895Z" fill="#145898"/>
<path d="M120.955 48.7938L122.575 46.2334C122.154 46.1253 121.828 45.9262 121.594 45.636C121.361 45.3458 121.245 44.9817 121.245 44.5436C121.245 43.9291 121.444 43.4767 121.842 43.1865C122.245 42.8964 122.805 42.7513 123.521 42.7513H125.499V48.7938H124.425V46.3785H123.675L122.259 48.7938H120.955ZM123.624 45.4994H124.425V43.656H123.589C122.737 43.656 122.311 43.9604 122.311 44.5692C122.311 44.8821 122.427 45.1154 122.66 45.269C122.893 45.4226 123.214 45.4994 123.624 45.4994Z" fill="#145898"/>
<path d="M134.134 43.5194L133.316 44.168C133.168 43.9632 132.966 43.8096 132.711 43.7072C132.461 43.5991 132.205 43.545 131.943 43.545C131.33 43.545 130.827 43.7555 130.434 44.1766C130.048 44.5976 129.855 45.1239 129.855 45.7555C129.855 46.4155 130.039 46.9532 130.409 47.3685C130.784 47.7782 131.281 47.983 131.901 47.983C132.537 47.983 133.026 47.7497 133.367 47.2832L134.228 47.8891C133.666 48.5947 132.887 48.9474 131.892 48.9474C130.949 48.9474 130.176 48.6516 129.573 48.0598C128.971 47.4624 128.67 46.6943 128.67 45.7555C128.67 44.8053 128.977 44.0429 129.59 43.4682C130.21 42.8878 130.994 42.5977 131.943 42.5977C132.364 42.5977 132.776 42.6773 133.18 42.8366C133.589 42.9902 133.907 43.2178 134.134 43.5194Z" fill="#145898"/>
<path d="M134.896 48.7938V42.7513H138.894V43.6901H135.97V45.2263H138.741V46.131H135.97V47.8379H139.048V48.7938H134.896Z" fill="#145898"/>
<path d="M141.318 48.7938V43.6901H139.468V42.7513H144.243V43.6901H142.393V48.7938H141.318Z" fill="#145898"/>
<path d="M144.945 48.7938V42.7513H148.943V43.6901H146.019V45.2263H148.79V46.131H146.019V47.8379H149.097V48.7938H144.945Z" fill="#145898"/>
<path d="M150.148 48.7938V42.7513H152.501C153.013 42.7513 153.448 42.8765 153.806 43.1268C154.169 43.3772 154.351 43.7584 154.351 44.2704C154.351 44.6005 154.258 44.8792 154.07 45.1068C153.882 45.3344 153.627 45.4966 153.303 45.5933V45.6104C153.695 45.6616 154.01 45.8124 154.249 46.0627C154.488 46.3131 154.607 46.6374 154.607 47.0357C154.607 47.3486 154.542 47.6246 154.411 47.8635C154.286 48.0968 154.113 48.2789 153.891 48.4097C153.669 48.5406 153.428 48.6373 153.166 48.6999C152.905 48.7625 152.624 48.7938 152.322 48.7938H150.148ZM151.222 43.6389V45.2093H152.177C152.535 45.2093 152.808 45.1381 152.996 44.9959C153.183 44.8536 153.277 44.6517 153.277 44.3899C153.277 44.1225 153.181 43.9319 152.987 43.8181C152.794 43.6986 152.493 43.6389 152.084 43.6389H151.222ZM151.222 46.131V47.8891H152.186C153.084 47.8891 153.533 47.5876 153.533 46.9845C153.533 46.6772 153.428 46.4582 153.217 46.3273C153.007 46.1964 152.678 46.131 152.229 46.131H151.222Z" fill="#145898"/>
<path d="M154.935 48.7938L157.561 42.7513H158.49L161.09 48.7938H159.863L159.3 47.4112H156.683L156.137 48.7938H154.935ZM157.049 46.4895H158.925L157.996 44.0315L157.049 46.4895Z" fill="#145898"/>
<path d="M161.185 48.7938L162.804 46.2334C162.384 46.1253 162.057 45.9262 161.824 45.636C161.591 45.3458 161.475 44.9817 161.475 44.5436C161.475 43.9291 161.673 43.4767 162.071 43.1865C162.475 42.8964 163.035 42.7513 163.751 42.7513H165.729V48.7938H164.655V46.3785H163.904L162.489 48.7938H161.185ZM163.853 45.4994H164.655V43.656H163.819C162.966 43.656 162.54 43.9604 162.54 44.5692C162.54 44.8821 162.657 45.1154 162.89 45.269C163.123 45.4226 163.444 45.4994 163.853 45.4994Z" fill="#145898"/>
<path d="M169.189 48.7938V42.7513H170.263V45.3629H170.289L172.812 42.7513H174.262L171.44 45.5421L174.449 48.7938H172.94L170.289 45.764H170.263V48.7938H169.189Z" fill="#145898"/>
<path d="M174.436 45.7555C174.436 44.7996 174.737 44.0343 175.339 43.4597C175.948 42.885 176.723 42.5977 177.667 42.5977C178.622 42.5977 179.403 42.885 180.011 43.4597C180.62 44.0343 180.924 44.7996 180.924 45.7555C180.924 46.6943 180.617 47.4624 180.003 48.0598C179.395 48.6516 178.616 48.9474 177.667 48.9474C176.729 48.9474 175.956 48.6516 175.348 48.0598C174.74 47.4624 174.436 46.6943 174.436 45.7555ZM175.604 45.7555C175.604 46.4041 175.797 46.9389 176.183 47.36C176.57 47.7753 177.067 47.983 177.675 47.983C178.289 47.983 178.789 47.7753 179.176 47.36C179.562 46.9389 179.756 46.4041 179.756 45.7555C179.756 45.1239 179.562 44.5976 179.176 44.1766C178.795 43.7555 178.295 43.545 177.675 43.545C177.062 43.545 176.561 43.7555 176.175 44.1766C175.794 44.5976 175.604 45.1239 175.604 45.7555Z" fill="#145898"/>
<path d="M181.961 48.7938V42.7513H183.64L185.209 47.0442H185.234L186.786 42.7513H188.474V48.7938H187.408V43.9376H187.391L185.558 48.7938H184.808L183.001 43.9376H182.984V48.7938H181.961Z" fill="#145898"/>
<path d="M189.803 48.7938V42.7513H194.723V48.7938H193.648V43.6901H190.878V48.7938H189.803Z" fill="#145898"/>
<path d="M195.323 48.7938L197.949 42.7513H198.878L201.478 48.7938H200.25L199.688 47.4112H197.07L196.525 48.7938H195.323ZM197.437 46.4895H199.313L198.383 44.0315L197.437 46.4895Z" fill="#145898"/>
<path d="M202.075 48.7938V42.7513H203.15V45.1922H205.972V42.7513H207.046V48.7938H205.972V46.1139H203.15V48.7938H202.075Z" fill="#145898"/>
<path d="M208.378 48.7938V42.7513H209.452V47.1722H209.478L212.308 42.7513H213.468V48.7938H212.393V44.407H212.376L209.554 48.7938H208.378Z" fill="#145898"/>
<path d="M214.294 48.7938L215.914 46.2334C215.493 46.1253 215.166 45.9262 214.933 45.636C214.7 45.3458 214.584 44.9817 214.584 44.5436C214.584 43.9291 214.783 43.4767 215.181 43.1865C215.584 42.8964 216.144 42.7513 216.86 42.7513H218.838V48.7938H217.764V46.3785H217.014L215.598 48.7938H214.294ZM216.962 45.4994H217.764V43.656H216.928C216.076 43.656 215.65 43.9604 215.65 44.5692C215.65 44.8821 215.766 45.1154 215.999 45.269C216.232 45.4226 216.553 45.4994 216.962 45.4994Z" fill="#145898"/>
<path d="M11.046 1.77808L0.202231 32.1411C-0.599912 34.3873 1.084 36.7432 3.49177 36.7432H16.2109L12.1093 56.0842C11.6002 58.4849 14.7315 59.9054 16.2375 57.9566L35.6905 32.7867C37.446 30.5153 35.809 27.2378 32.9191 27.2378H22.7259L37.3932 4.08229C38.518 2.30653 37.2279 0 35.1098 0H13.5869C12.4448 0 11.4265 0.712393 11.046 1.77808Z" fill="#145898"/>
<path d="M16.0308 58.1916C14.4649 59.779 11.6228 58.3799 12.1089 56.0831L16.2105 36.7422H17.4195C18.4934 36.7422 19.2953 37.7195 19.0749 38.7594L15.4011 56.0831C15.2167 56.9526 15.5101 57.6942 16.0308 58.1916Z" fill="#145898"/>
<path d="M21.0385 0C19.8964 0 18.8777 0.711896 18.497 1.77792L7.65287 32.1408C6.85072 34.3866 8.53514 36.7428 10.9427 36.7428H3.49279C1.08536 36.7428 -0.599231 34.3868 0.202912 32.1408L11.047 1.77792C11.4277 0.711896 12.4453 0 13.5874 0H21.0385Z" fill="#145898"/>
</svg>
