<svg width="219" height="59" viewBox="0 0 219 59" fill="none" xmlns="http://www.w3.org/2000/svg">
<path d="M47.186 36.3327L58.1457 10.4828H64.2712L75.1202 36.3327H68.109L66.0794 31.2577H55.9685L54.0496 36.3327H47.186ZM57.7767 26.2556H64.345L61.0978 17.3834L57.7767 26.2556Z" fill="#145898"/>
<path d="M78.8927 36.5883C77.3921 36.5883 76.1866 36.4544 75.2764 36.1867L75.793 31.0021C76.2851 31.1725 76.8017 31.2577 77.3429 31.2577C78.3515 31.2577 79.1633 30.9534 79.7784 30.3449C80.418 29.7364 80.9223 28.5558 81.2913 26.8033C81.6849 25.0264 81.8817 22.6288 81.8817 19.6106V10.4828H101.808V36.3327H95.4982V15.7769H87.9335V19.355C87.9335 25.5619 87.2201 29.9919 85.7932 32.6451C84.3664 35.2739 82.0662 36.5883 78.8927 36.5883Z" fill="#145898"/>
<path d="M120.031 37.0264C115.972 37.0264 112.614 35.7607 109.957 33.2293C107.3 30.6735 105.972 27.3875 105.972 23.3712C105.972 19.3063 107.313 16.0325 109.994 13.5497C112.7 11.0426 116.083 9.78906 120.142 9.78906C122.036 9.78906 123.869 10.1298 125.64 10.8114C127.436 11.4686 128.863 12.3935 129.921 13.5862L125.64 17.8215C125.074 17.0426 124.312 16.4584 123.352 16.069C122.417 15.6552 121.421 15.4483 120.363 15.4483C118.174 15.4483 116.366 16.2029 114.939 17.712C113.537 19.1968 112.835 21.0832 112.835 23.3712C112.835 25.708 113.524 27.6187 114.902 29.1035C116.28 30.5639 118.063 31.2942 120.253 31.2942C122.688 31.2942 124.533 30.4179 125.788 28.6654L130.179 32.7546C127.694 35.6025 124.312 37.0264 120.031 37.0264Z" fill="#145898"/>
<path d="M132.883 36.3327V10.4828H139.083V20.998H139.193L148.529 10.4828H156.426L145.171 22.3854L157.09 36.3327H148.862L139.157 24.4301H139.083V36.3327H132.883Z" fill="#145898"/>
<path d="M170.629 37.0264C166.521 37.0264 163.126 35.7607 160.445 33.2293C157.763 30.6735 156.423 27.3631 156.423 23.2982C156.423 19.209 157.751 15.9351 160.408 13.4767C163.089 11.0183 166.497 9.78906 170.629 9.78906C174.787 9.78906 178.194 11.0183 180.851 13.4767C183.533 15.9351 184.873 19.209 184.873 23.2982C184.873 27.3631 183.533 30.6735 180.851 33.2293C178.17 35.7607 174.762 37.0264 170.629 37.0264ZM165.242 29.067C166.644 30.5761 168.44 31.3307 170.629 31.3307C172.819 31.3307 174.615 30.5761 176.017 29.067C177.419 27.5579 178.12 25.6349 178.12 23.2982C178.12 21.0102 177.419 19.1238 176.017 17.639C174.615 16.1542 172.819 15.4118 170.629 15.4118C168.44 15.4118 166.644 16.1542 165.242 17.639C163.864 19.1238 163.175 21.0102 163.175 23.2982C163.175 25.6349 163.864 27.5579 165.242 29.067Z" fill="#145898"/>
<path d="M189.028 36.3327V10.4828H197.995L203.936 27.0589H204.083L209.766 10.4828H218.881V36.3327H212.718L212.866 18.0406H212.755L205.965 36.3327H201.537L194.932 18.0406H194.821L194.969 36.3327H189.028Z" fill="#145898"/>
<path d="M47.1677 48.7918L49.7936 42.7493H50.7228L53.3231 48.7918H52.0954L51.5328 47.4092H48.9154L48.3698 48.7918H47.1677ZM49.282 46.4875H51.1576L50.2284 44.0295L49.282 46.4875Z" fill="#145898"/>
<path d="M54.1311 48.8516C53.8412 48.8516 53.6025 48.8231 53.415 48.7662L53.5258 47.8189C53.6452 47.8587 53.7673 47.8786 53.8924 47.8786C54.3187 47.8786 54.6256 47.6283 54.8131 47.1276C55.0064 46.6269 55.103 45.7421 55.103 44.4733V42.7493H59.2549V48.7918H58.1807V43.6881H56.1346V44.6184C56.1346 46.1034 55.9783 47.1816 55.6657 47.853C55.3588 48.5187 54.8472 48.8516 54.1311 48.8516Z" fill="#145898"/>
<path d="M60.5809 48.7918V42.7493H61.6551V45.1476H62.5503C63.2323 45.1476 63.7808 45.2983 64.1957 45.5999C64.6163 45.9015 64.8266 46.3566 64.8266 46.9654C64.8266 47.5686 64.6163 48.0237 64.1957 48.331C63.7808 48.6382 63.238 48.7918 62.5673 48.7918H60.5809ZM61.6551 47.8872H62.465C63.3176 47.8872 63.7438 47.5828 63.7438 46.974C63.7438 46.6724 63.633 46.4448 63.4113 46.2912C63.1897 46.1319 62.8742 46.0522 62.465 46.0522H61.6551V47.8872Z" fill="#145898"/>
<path d="M66.504 48.7918V43.6881H64.654V42.7493H69.4283V43.6881H67.5782V48.7918H66.504Z" fill="#145898"/>
<path d="M70.1304 48.7918V42.7493H74.1289V43.6881H71.2046V45.2244H73.9754V46.129H71.2046V47.836H74.2823V48.7918H70.1304Z" fill="#145898"/>
<path d="M75.3339 48.7918V42.7493H77.3033C78.8209 42.7493 79.5796 43.3325 79.5796 44.4989C79.5796 45.1248 79.3637 45.58 78.9317 45.8645C78.4997 46.149 77.9342 46.2912 77.2351 46.2912H76.4082V48.7918H75.3339ZM76.4082 45.3865H77.1584C78.0507 45.3865 78.4969 45.0907 78.4969 44.4989C78.4969 44.1746 78.3775 43.9527 78.1388 43.8332C77.9058 43.7137 77.5904 43.654 77.1925 43.654H76.4082V45.3865Z" fill="#145898"/>
<path d="M80.5375 48.7918V42.7493H81.6117V45.1902H84.4336V42.7493H85.5078V48.7918H84.4336V46.112H81.6117V48.7918H80.5375Z" fill="#145898"/>
<path d="M86.1068 48.7918L88.7327 42.7493H89.6619L92.2622 48.7918H91.0345L90.4719 47.4092H87.8545L87.3089 48.7918H86.1068ZM88.2211 46.4875H90.0967L89.1675 44.0295L88.2211 46.4875Z" fill="#145898"/>
<path d="M93.5707 48.7918V43.6881H91.7207V42.7493H96.495V43.6881H94.6449V48.7918H93.5707Z" fill="#145898"/>
<path d="M97.1971 48.7918V42.7493H98.2713V47.1703H98.2969L101.127 42.7493H102.287V48.7918H101.213V44.405H101.196L98.3736 48.7918H97.1971Z" fill="#145898"/>
<path d="M103.616 48.7918V42.7493H105.969C106.481 42.7493 106.916 42.8745 107.274 43.1249C107.637 43.3752 107.819 43.7564 107.819 44.2685C107.819 44.5985 107.725 44.8773 107.538 45.1049C107.35 45.3325 107.095 45.4946 106.771 45.5914V45.6084C107.163 45.6596 107.478 45.8104 107.717 46.0608C107.956 46.3111 108.075 46.6354 108.075 47.0337C108.075 47.3467 108.01 47.6226 107.879 47.8616C107.754 48.0949 107.581 48.2769 107.359 48.4078C107.137 48.5387 106.896 48.6354 106.634 48.698C106.373 48.7606 106.091 48.7918 105.79 48.7918H103.616ZM104.69 43.6369V45.2073H105.645C106.003 45.2073 106.276 45.1362 106.464 44.9939C106.651 44.8517 106.745 44.6497 106.745 44.388C106.745 44.1206 106.648 43.93 106.455 43.8162C106.262 43.6967 105.961 43.6369 105.551 43.6369H104.69ZM104.69 46.129V47.8872H105.654C106.552 47.8872 107.001 47.5856 107.001 46.9825C107.001 46.6753 106.896 46.4562 106.685 46.3253C106.475 46.1945 106.145 46.129 105.696 46.129H104.69Z" fill="#145898"/>
<path d="M109.136 48.7918V42.7493H110.21V45.1902H113.032V42.7493H114.106V48.7918H113.032V46.112H110.21V48.7918H109.136Z" fill="#145898"/>
<path d="M114.705 48.7918L117.331 42.7493H118.261L120.861 48.7918H119.633L119.07 47.4092H116.453L115.908 48.7918H114.705ZM116.82 46.4875H118.695L117.766 44.0295L116.82 46.4875Z" fill="#145898"/>
<path d="M120.955 48.7918L122.575 46.2315C122.154 46.1234 121.828 45.9242 121.594 45.634C121.361 45.3439 121.245 44.9797 121.245 44.5416C121.245 43.9271 121.444 43.4748 121.842 43.1846C122.245 42.8944 122.805 42.7493 123.521 42.7493H125.499V48.7918H124.425V46.3765H123.675L122.259 48.7918H120.955ZM123.624 45.4975H124.425V43.654H123.589C122.737 43.654 122.311 43.9584 122.311 44.5672C122.311 44.8801 122.427 45.1134 122.66 45.267C122.893 45.4207 123.214 45.4975 123.624 45.4975Z" fill="#145898"/>
<path d="M134.134 43.5174L133.316 44.1661C133.168 43.9612 132.966 43.8076 132.711 43.7052C132.461 43.5971 132.205 43.543 131.943 43.543C131.33 43.543 130.827 43.7536 130.434 44.1746C130.048 44.5957 129.855 45.122 129.855 45.7535C129.855 46.4135 130.039 46.9512 130.409 47.3666C130.784 47.7762 131.281 47.9811 131.901 47.9811C132.537 47.9811 133.026 47.7478 133.367 47.2812L134.228 47.8872C133.666 48.5927 132.887 48.9455 131.892 48.9455C130.949 48.9455 130.176 48.6496 129.573 48.0579C128.971 47.4604 128.67 46.6923 128.67 45.7535C128.67 44.8033 128.977 44.0409 129.59 43.4662C130.21 42.8859 130.994 42.5957 131.943 42.5957C132.364 42.5957 132.776 42.6754 133.18 42.8347C133.589 42.9883 133.907 43.2159 134.134 43.5174Z" fill="#145898"/>
<path d="M134.896 48.7918V42.7493H138.894V43.6881H135.97V45.2244H138.741V46.129H135.97V47.836H139.048V48.7918H134.896Z" fill="#145898"/>
<path d="M141.318 48.7918V43.6881H139.468V42.7493H144.243V43.6881H142.393V48.7918H141.318Z" fill="#145898"/>
<path d="M144.945 48.7918V42.7493H148.943V43.6881H146.019V45.2244H148.79V46.129H146.019V47.836H149.097V48.7918H144.945Z" fill="#145898"/>
<path d="M150.148 48.7918V42.7493H152.501C153.013 42.7493 153.448 42.8745 153.806 43.1249C154.169 43.3752 154.351 43.7564 154.351 44.2685C154.351 44.5985 154.258 44.8773 154.07 45.1049C153.882 45.3325 153.627 45.4946 153.303 45.5914V45.6084C153.695 45.6596 154.01 45.8104 154.249 46.0608C154.488 46.3111 154.607 46.6354 154.607 47.0337C154.607 47.3467 154.542 47.6226 154.411 47.8616C154.286 48.0949 154.113 48.2769 153.891 48.4078C153.669 48.5387 153.428 48.6354 153.166 48.698C152.905 48.7606 152.624 48.7918 152.322 48.7918H150.148ZM151.222 43.6369V45.2073H152.177C152.535 45.2073 152.808 45.1362 152.996 44.9939C153.183 44.8517 153.277 44.6497 153.277 44.388C153.277 44.1206 153.181 43.93 152.987 43.8162C152.794 43.6967 152.493 43.6369 152.084 43.6369H151.222ZM151.222 46.129V47.8872H152.186C153.084 47.8872 153.533 47.5856 153.533 46.9825C153.533 46.6753 153.428 46.4562 153.217 46.3253C153.007 46.1945 152.678 46.129 152.229 46.129H151.222Z" fill="#145898"/>
<path d="M154.935 48.7918L157.561 42.7493H158.49L161.09 48.7918H159.863L159.3 47.4092H156.683L156.137 48.7918H154.935ZM157.049 46.4875H158.925L157.996 44.0295L157.049 46.4875Z" fill="#145898"/>
<path d="M161.185 48.7918L162.804 46.2315C162.384 46.1234 162.057 45.9242 161.824 45.634C161.591 45.3439 161.475 44.9797 161.475 44.5416C161.475 43.9271 161.673 43.4748 162.071 43.1846C162.475 42.8944 163.035 42.7493 163.751 42.7493H165.729V48.7918H164.655V46.3765H163.904L162.489 48.7918H161.185ZM163.853 45.4975H164.655V43.654H163.819C162.966 43.654 162.54 43.9584 162.54 44.5672C162.54 44.8801 162.657 45.1134 162.89 45.267C163.123 45.4207 163.444 45.4975 163.853 45.4975Z" fill="#145898"/>
<path d="M169.189 48.7918V42.7493H170.263V45.3609H170.289L172.812 42.7493H174.262L171.44 45.5402L174.449 48.7918H172.94L170.289 45.7621H170.263V48.7918H169.189Z" fill="#145898"/>
<path d="M174.436 45.7535C174.436 44.7976 174.737 44.0324 175.339 43.4577C175.948 42.883 176.723 42.5957 177.667 42.5957C178.622 42.5957 179.403 42.883 180.011 43.4577C180.62 44.0324 180.924 44.7976 180.924 45.7535C180.924 46.6923 180.617 47.4604 180.003 48.0579C179.395 48.6496 178.616 48.9455 177.667 48.9455C176.729 48.9455 175.956 48.6496 175.348 48.0579C174.74 47.4604 174.436 46.6923 174.436 45.7535ZM175.604 45.7535C175.604 46.4022 175.797 46.937 176.183 47.358C176.57 47.7734 177.067 47.9811 177.675 47.9811C178.289 47.9811 178.789 47.7734 179.176 47.358C179.562 46.937 179.756 46.4022 179.756 45.7535C179.756 45.122 179.562 44.5957 179.176 44.1746C178.795 43.7536 178.295 43.543 177.675 43.543C177.062 43.543 176.561 43.7536 176.175 44.1746C175.794 44.5957 175.604 45.122 175.604 45.7535Z" fill="#145898"/>
<path d="M181.961 48.7918V42.7493H183.64L185.209 47.0422H185.234L186.786 42.7493H188.474V48.7918H187.408V43.9356H187.391L185.558 48.7918H184.808L183.001 43.9356H182.984V48.7918H181.961Z" fill="#145898"/>
<path d="M189.803 48.7918V42.7493H194.723V48.7918H193.648V43.6881H190.878V48.7918H189.803Z" fill="#145898"/>
<path d="M195.323 48.7918L197.949 42.7493H198.878L201.478 48.7918H200.25L199.688 47.4092H197.07L196.525 48.7918H195.323ZM197.437 46.4875H199.313L198.383 44.0295L197.437 46.4875Z" fill="#145898"/>
<path d="M202.075 48.7918V42.7493H203.15V45.1902H205.972V42.7493H207.046V48.7918H205.972V46.112H203.15V48.7918H202.075Z" fill="#145898"/>
<path d="M208.378 48.7918V42.7493H209.452V47.1703H209.478L212.308 42.7493H213.468V48.7918H212.393V44.405H212.376L209.554 48.7918H208.378Z" fill="#145898"/>
<path d="M214.294 48.7918L215.914 46.2315C215.493 46.1234 215.166 45.9242 214.933 45.634C214.7 45.3439 214.584 44.9797 214.584 44.5416C214.584 43.9271 214.783 43.4748 215.181 43.1846C215.584 42.8944 216.144 42.7493 216.86 42.7493H218.838V48.7918H217.764V46.3765H217.014L215.598 48.7918H214.294ZM216.962 45.4975H217.764V43.654H216.928C216.076 43.654 215.65 43.9584 215.65 44.5672C215.65 44.8801 215.766 45.1134 215.999 45.267C216.232 45.4207 216.553 45.4975 216.962 45.4975Z" fill="#145898"/>
<path d="M11.046 1.77808L0.202231 32.1411C-0.599912 34.3873 1.084 36.7432 3.49177 36.7432H16.2109L12.1093 56.0842C11.6002 58.4849 14.7315 59.9054 16.2375 57.9566L35.6905 32.7867C37.446 30.5153 35.809 27.2378 32.9191 27.2378H22.7259L37.3932 4.08229C38.518 2.30653 37.2279 0 35.1098 0H13.5869C12.4448 0 11.4265 0.712393 11.046 1.77808Z" fill="#145898"/>
<path d="M16.0308 58.1916C14.4649 59.779 11.6228 58.3799 12.1089 56.0831L16.2105 36.7422H17.4195C18.4934 36.7422 19.2953 37.7195 19.0749 38.7594L15.4011 56.0831C15.2167 56.9526 15.5101 57.6942 16.0308 58.1916Z" fill="#145898"/>
<path d="M21.0385 0C19.8964 0 18.8777 0.711896 18.497 1.77792L7.65287 32.1408C6.85072 34.3866 8.53514 36.7428 10.9427 36.7428H3.49279C1.08536 36.7428 -0.599231 34.3868 0.202912 32.1408L11.047 1.77792C11.4277 0.711896 12.4453 0 13.5874 0H21.0385Z" fill="#145898"/>
</svg>
